HIERARCHY
ROOT hip
{
  OFFSET -0.41853 39.8068 0.154369
  CHANNELS 6 Xposition Yposition Zposition Zrotation Xrotation Yrotation
  JOINT abdomen
  {
    OFFSET 0 7.2397 0
    CHANNELS 6 Xposition Yposition Zposition Zrotation Xrotation Yrotation
    JOINT chest
    {
      OFFSET 0 16.546 0
      CHANNELS 6 Xposition Yposition Zposition Zrotation Xrotation Yrotation
      JOINT neck
      {
        OFFSET 0 34.2149 0
        CHANNELS 6 Xposition Yposition Zposition Zrotation Xrotation Yrotation
        JOINT head
        {
          OFFSET 0 6.2923 0
          CHANNELS 6 Xposition Yposition Zposition Zrotation Xrotation Yrotation
          End Site
          {
            OFFSET 0 21.2161 0
          }
        }
      }
      JOINT lCollar
      {
        OFFSET 4.0639 26.6115 -1.1234
        CHANNELS 6 Xposition Yposition Zposition Zrotation Xrotation Yrotation
        JOINT lShldr
        {
          OFFSET 14.1772 0 0
          CHANNELS 6 Xposition Yposition Zposition Zrotation Xrotation Yrotation
          JOINT lForeArm
          {
            OFFSET 26.1234 0 0
            CHANNELS 6 Xposition Yposition Zposition Zrotation Xrotation Yrotation
            JOINT lHand
            {
              OFFSET 27.7188 0 0
              CHANNELS 6 Xposition Yposition Zposition Zrotation Xrotation Yrotation
              JOINT lThumb1
              {
                OFFSET 2.2979 -0.4685 1.8313
                CHANNELS 6 Xposition Yposition Zposition Zrotation Xrotation Yrotation
                JOINT lThumb2
                {
                  OFFSET 5.2953 0 0
                  CHANNELS 6 Xposition Yposition Zposition Zrotation Xrotation Yrotation
                  JOINT lThumb3
                  {
                    OFFSET 3.0181 0 0
                    CHANNELS 6 Xposition Yposition Zposition Zrotation Xrotation Yrotation
                    End Site
                    {
                      OFFSET 2.6294 0 0
                    }
                  }
                }
              }
              JOINT lIndex1
              {
                OFFSET 9.3793 0.2991 2.5924
                CHANNELS 6 Xposition Yposition Zposition Zrotation Xrotation Yrotation
                JOINT lIndex2
                {
                  OFFSET 4.3461 0 0
                  CHANNELS 6 Xposition Yposition Zposition Zrotation Xrotation Yrotation
                  JOINT lIndex3
                  {
                    OFFSET 2.1666 0 0
                    CHANNELS 6 Xposition Yposition Zposition Zrotation Xrotation Yrotation
                    End Site
                    {
                      OFFSET 2.2048 0 0
                    }
                  }
                }
              }
              JOINT lMid1
              {
                OFFSET 9.4769 0.8376 0.2947
                CHANNELS 6 Xposition Yposition Zposition Zrotation Xrotation Yrotation
                JOINT lMid2
                {
                  OFFSET 4.772 0 0
                  CHANNELS 6 Xposition Yposition Zposition Zrotation Xrotation Yrotation
                  JOINT lMid3
                  {
                    OFFSET 2.8722 0 0
                    CHANNELS 6 Xposition Yposition Zposition Zrotation Xrotation Yrotation
                    End Site
                    {
                      OFFSET 2.0959 0 0
                    }
                  }
                }
              }
              JOINT lRing1
              {
                OFFSET 8.6586 1.0176 -1.7016
                CHANNELS 6 Xposition Yposition Zposition Zrotation Xrotation Yrotation
                JOINT lRing2
                {
                  OFFSET 4.5461 0 0
                  CHANNELS 6 Xposition Yposition Zposition Zrotation Xrotation Yrotation
                  JOINT lRing3
                  {
                    OFFSET 2.506 0 0
                    CHANNELS 6 Xposition Yposition Zposition Zrotation Xrotation Yrotation
                    End Site
                    {
                      OFFSET 2.2023 0 0
                    }
                  }
                }
              }
              JOINT lPinky1
              {
                OFFSET 7.6901 0.6618 -3.9096
                CHANNELS 6 Xposition Yposition Zposition Zrotation Xrotation Yrotation
                JOINT lPinky2
                {
                  OFFSET 3.2119 0 0
                  CHANNELS 6 Xposition Yposition Zposition Zrotation Xrotation Yrotation
                  JOINT lPinky3
                  {
                    OFFSET 1.924 0 0
                    CHANNELS 6 Xposition Yposition Zposition Zrotation Xrotation Yrotation
                    End Site
                    {
                      OFFSET 1.7829 0 0
                    }
                  }
                }
              }
            }
          }
        }
      }
      JOINT rCollar
      {
        OFFSET -4.0677 26.6109 -1.1234
        CHANNELS 6 Xposition Yposition Zposition Zrotation Xrotation Yrotation
        JOINT rShldr
        {
          OFFSET -14.1772 0 0
          CHANNELS 6 Xposition Yposition Zposition Zrotation Xrotation Yrotation
          JOINT rForeArm
          {
            OFFSET -26.1234 0 0
            CHANNELS 6 Xposition Yposition Zposition Zrotation Xrotation Yrotation
            JOINT rHand
            {
              OFFSET -27.7188 0 0
              CHANNELS 6 Xposition Yposition Zposition Zrotation Xrotation Yrotation
              JOINT rThumb1
              {
                OFFSET -2.2979 -0.4684 1.8313
                CHANNELS 6 Xposition Yposition Zposition Zrotation Xrotation Yrotation
                JOINT rThumb2
                {
                  OFFSET -5.2953 0 0
                  CHANNELS 6 Xposition Yposition Zposition Zrotation Xrotation Yrotation
                  JOINT rThumb3
                  {
                    OFFSET -3.0181 0 0
                    CHANNELS 6 Xposition Yposition Zposition Zrotation Xrotation Yrotation
                    End Site
                    {
                      OFFSET -2.6294 0 0
                    }
                  }
                }
              }
              JOINT rIndex1
              {
                OFFSET -9.3793 0.2991 2.5924
                CHANNELS 6 Xposition Yposition Zposition Zrotation Xrotation Yrotation
                JOINT rIndex2
                {
                  OFFSET -4.3461 0 0
                  CHANNELS 6 Xposition Yposition Zposition Zrotation Xrotation Yrotation
                  JOINT rIndex3
                  {
                    OFFSET -2.1666 0 0
                    CHANNELS 6 Xposition Yposition Zposition Zrotation Xrotation Yrotation
                    End Site
                    {
                      OFFSET -2.2048 0 0
                    }
                  }
                }
              }
              JOINT rMid1
              {
                OFFSET -9.4769 0.8376 0.2947
                CHANNELS 6 Xposition Yposition Zposition Zrotation Xrotation Yrotation
                JOINT rMid2
                {
                  OFFSET -4.772 0 0
                  CHANNELS 6 Xposition Yposition Zposition Zrotation Xrotation Yrotation
                  JOINT rMid3
                  {
                    OFFSET -2.8722 0 0
                    CHANNELS 6 Xposition Yposition Zposition Zrotation Xrotation Yrotation
                    End Site
                    {
                      OFFSET -2.0959 0 0
                    }
                  }
                }
              }
              JOINT rRing1
              {
                OFFSET -8.6586 1.0176 -1.7016
                CHANNELS 6 Xposition Yposition Zposition Zrotation Xrotation Yrotation
                JOINT rRing2
                {
                  OFFSET -4.5461 0 0
                  CHANNELS 6 Xposition Yposition Zposition Zrotation Xrotation Yrotation
                  JOINT rRing3
                  {
                    OFFSET -2.506 0 0
                    CHANNELS 6 Xposition Yposition Zposition Zrotation Xrotation Yrotation
                    End Site
                    {
                      OFFSET -2.2023 0 0
                    }
                  }
                }
              }
              JOINT rPinky1
              {
                OFFSET -7.6901 0.6618 -3.9096
                CHANNELS 6 Xposition Yposition Zposition Zrotation Xrotation Yrotation
                JOINT rPinky2
                {
                  OFFSET -3.2119 0 0
                  CHANNELS 6 Xposition Yposition Zposition Zrotation Xrotation Yrotation
                  JOINT rPinky3
                  {
                    OFFSET -1.924 0 0
                    CHANNELS 6 Xposition Yposition Zposition Zrotation Xrotation Yrotation
                    End Site
                    {
                      OFFSET -1.7829 0 0
                    }
                  }
                }
              }
            }
          }
        }
      }
    }
  }
  JOINT lThigh
  {
    OFFSET 8.7379 -0.0029 0.0005
    CHANNELS 6 Xposition Yposition Zposition Zrotation Xrotation Yrotation
    JOINT lShin
    {
      OFFSET 0 -46.6676 0
      CHANNELS 6 Xposition Yposition Zposition Zrotation Xrotation Yrotation
      JOINT lFoot
      {
        OFFSET 0 -40.1476 0
        CHANNELS 6 Xposition Yposition Zposition Zrotation Xrotation Yrotation
        JOINT lToes
        {
          OFFSET 0 -8.8846 14.2294
          CHANNELS 6 Xposition Yposition Zposition Zrotation Xrotation Yrotation
          End Site
          {
            OFFSET 0 0 6.296
          }
        }
      }
    }
  }
  JOINT rThigh
  {
    OFFSET -8.7379 0.0029 -0.0005
    CHANNELS 6 Xposition Yposition Zposition Zrotation Xrotation Yrotation
    JOINT rShin
    {
      OFFSET 0 -46.6676 0
      CHANNELS 6 Xposition Yposition Zposition Zrotation Xrotation Yrotation
      JOINT rFoot
      {
        OFFSET 0 -40.1476 0
        CHANNELS 6 Xposition Yposition Zposition Zrotation Xrotation Yrotation
        JOINT rToes
        {
          OFFSET 0 -8.8846 14.2294
          CHANNELS 6 Xposition Yposition Zposition Zrotation Xrotation Yrotation
          End Site
          {
            OFFSET 0 0 6.296
          }
        }
      }
    }
  }
}
MOTION
Frames:	4
Frame Time:	0.0333333
-0.41853 39.8068 0.154369 -5.75734 -12.5069 -42.5932 -4.44089e-16 7.2397 0 -2.70831 13.5468 6.79391 0 16.546 0 -7.58616 28.795 11.4437 -1.33227e-15 34.2149 0 2.75234 30.1507 1.86949 -1.77636e-15 6.2923 -1.42109e-14 4.39102 -35.7387 21.0312 4.0639 26.6115 -1.1234 4.99353 -8.49025 -2.34334 14.1772 0 0 -71.6668 7.01102 -55.7288 26.1234 0 7.10543e-15 -105.856 -13.4303 -93.051 27.7188 -1.42109e-14 0 9.20669 -28.1611 5.30235 2.2979 -0.4685 1.8313 37.1841 70.9488 -65.3921 5.2953 7.10543e-15 -7.10543e-15 -13.655 2.43914 4.23131 3.0181 7.10543e-15 -7.10543e-15 40.575 -4.26209 10.4488 9.3793 0.2991 2.5924 -15.7189 8.26171 2.10858 4.3461 7.10543e-15 -3.55271e-15 -27.9756 -1.11866 5.59656 2.1666 0 -3.55271e-15 -30.2284 -1.57777 5.42757 9.4769 0.8376 0.2947 -15.5574 6.19104 1.80127 4.772 0 0 -44.2332 -4.15799 10.4286 2.8722 -3.55271e-15 0 -38.4625 -3.11873 10.6456 8.6586 1.0176 -1.7016 -12.8096 4.05758 0.0154535 4.5461 0 0 -68.2419 -4.98725 7.35472 2.506 0 0 -26.1841 0.226366 12.1003 7.6901 0.6618 -3.9096 -1.69592 -16.7036 -0.578566 3.2119 0 0 -48.2121 -6.75384 15.0249 1.924 4.44089e-15 -7.10543e-15 -25.7169 -1.92461 10.2066 -4.0677 26.6109 -1.1234 -9.1298 -10.8296 -10.6757 -14.1772 0 -1.77636e-15 41.0641 41.8374 33.5117 -26.1234 0 0 27.0142 0.39377 118.512 -27.7188 0 1.42109e-14 -9.5865 -11.029 12.6291 -2.2979 -0.4684 1.8313 -92.2024 72.3373 115.748 -5.2953 7.10543e-15 7.10543e-15 20.806 -0.164366 -7.80925 -3.0181 -1.42109e-14 7.10543e-15 7.44353 -1.87408 -23.1505 -9.3793 0.2991 2.5924 -0.483211 -1.4043 -4.46204 -4.3461 3.55271e-15 -1.42109e-14 11.3885 0.0663402 -2.1081 -2.1666 0 0 35.2115 -1.89994 -5.61244 -9.4769 0.8376 0.2947 -5.74449 -0.492517 -10.345 -4.772 1.77636e-15 0 99.6664 -15.9162 -13.533 -2.8722 0 1.42109e-14 64.9769 -7.76868 -13.6635 -8.6586 1.0176 -1.7016 4.03544 -11.2401 -9.54017 -4.5461 -5.32907e-15 0 113.305 -9.33452 -6.15034 -2.506 3.55271e-15 0 71.4335 -4.52062 -7.1353 -7.6901 0.6618 -3.9096 -3.28619 -26.781 -8.59919 -3.2119 -7.10543e-15 1.42109e-14 88.1866 -18.3453 -18.9248 -1.924 0 -1.42109e-14 68.3114 -11.8989 -18.9734 8.7379 -0.0029 0.0005 76.1189 -50.8366 66.2292 -1.77636e-15 -46.6676 0 177.829 52.6366 -160.849 -1.77636e-15 -40.1476 3.55271e-15 -20.0751 -27.9902 -1.77475 0 -8.8846 14.2294 0.0001 9.93923e-17 9.54166e-15 -8.7379 0.0029 -0.0005 -23.2332 -5.10452 25.1301 3.55271e-15 -46.6676 -1.77636e-15 -167.917 55.9591 157.914 -3.55271e-15 -40.1476 -1.77636e-15 -3.2783 -46.6202 -6.27983 0 -8.8846 14.2294 -2.38542e-15 3.18055e-15 -1.39149e-15 
-0.536668 39.8188 -0.11846 -5.90784 -13.6716 -43.2327 0 7.2397 0 -2.70883 13.9096 5.88537 -2.22045e-16 16.546 0 -7.57506 29.5668 9.7006 1.9984e-15 34.2149 7.10543e-15 2.74538 30.1007 1.21263 -8.88178e-16 6.2923 1.42109e-14 4.32696 -36.046 17.6972 4.0639 26.6115 -1.1234 4.77853 -8.78633 -3.19608 14.1772 -1.42109e-14 0 -71.1951 6.83762 -56.398 26.1234 0 -7.10543e-15 -105.767 -14.6758 -93.3124 27.7188 -1.42109e-14 0 9.21396 -28.5365 5.95016 2.2979 -0.4685 1.8313 37.1841 70.9488 -65.3921 5.2953 -3.55271e-15 7.10543e-15 -13.655 2.43914 4.23131 3.0181 0 0 40.575 -4.26209 10.4488 9.3793 0.2991 2.5924 -15.7189 8.26171 2.10858 4.3461 -7.10543e-15 0 -27.9756 -1.11866 5.59656 2.1666 0 3.55271e-15 -30.2284 -1.57777 5.42757 9.4769 0.8376 0.2947 -15.5574 6.19104 1.80127 4.772 -7.10543e-15 -7.10543e-15 -44.2332 -4.15799 10.4286 2.8722 0 -3.55271e-15 -38.4625 -3.11873 10.6456 8.6586 1.0176 -1.7016 -12.8096 4.05758 0.0154535 4.5461 -7.10543e-15 0 -68.2419 -4.98725 7.35472 2.506 7.10543e-15 -3.55271e-15 -26.1841 0.226366 12.1003 7.6901 0.6618 -3.9096 -1.69592 -16.7036 -0.578566 3.2119 -1.42109e-14 7.10543e-15 -48.2121 -6.75384 15.0249 1.924 -1.77636e-15 0 -25.7169 -1.92461 10.2066 -4.0677 26.6109 -1.1234 -9.13586 -10.8248 -10.6962 -14.1772 1.42109e-14 -1.77636e-15 42.0068 41.6471 32.672 -26.1234 -7.10543e-15 0 26.6258 0.256897 118.639 -27.7188 7.10543e-15 0 -10.1155 -11.133 12.3573 -2.2979 -0.4684 1.8313 -92.2024 72.3373 115.748 -5.2953 -7.10543e-15 0 20.806 -0.164366 -7.80925 -3.0181 0 0 7.44353 -1.87408 -23.1505 -9.3793 0.2991 2.5924 -0.483211 -1.4043 -4.46204 -4.3461 0 0 11.3885 0.0663402 -2.1081 -2.1666 -3.55271e-15 1.42109e-14 35.2115 -1.89994 -5.61244 -9.4769 0.8376 0.2947 -5.74449 -0.492517 -10.345 -4.772 0 1.42109e-14 99.6664 -15.9162 -13.533 -2.8722 3.55271e-15 -1.42109e-14 64.9769 -7.76868 -13.6635 -8.6586 1.0176 -1.7016 4.03544 -11.2401 -9.54017 -4.5461 -2.66454e-15 1.42109e-14 113.305 -9.33452 -6.15034 -2.506 -3.55271e-15 -1.42109e-14 71.4335 -4.52062 -7.1353 -7.6901 0.6618 -3.9096 -3.28619 -26.781 -8.59919 -3.2119 0 -1.42109e-14 88.1866 -18.3453 -18.9248 -1.924 3.55271e-15 0 68.3114 -11.8989 -18.9734 8.7379 -0.0029 0.0005 74.4933 -49.9328 65.3956 0 -46.6676 0 176.894 52.9866 -160.353 -8.88178e-16 -40.1476 -3.55271e-15 -19.7451 -27.8234 -1.61257 1.77636e-15 -8.8846 14.2294 0.0001 -4.96962e-17 -0 -8.7379 0.0029 -0.0005 -23.7562 -4.67544 25.3343 0 -46.6676 1.77636e-15 -166.943 55.0155 156.758 0 -40.1476 -3.55271e-15 -2.61556 -46.869 -5.57281 0 -8.8846 14.2294 0 0 -2.18663e-15 
-1.22126 39.9353 -0.778407 -6.43203 -15.0718 -44.1991 0 7.2397 -1.77636e-15 -2.71279 14.2496 5.14792 -4.44089e-16 16.546 0 -7.51893 30.2854 8.30734 0 34.2149 0 2.74438 29.9275 -0.234853 -8.88178e-16 6.2923 2.84217e-14 4.06576 -37.0519 10.3469 4.0639 26.6115 -1.1234 4.52588 -9.11371 -4.16911 14.1772 0 0 -70.5528 6.77552 -56.7088 26.1234 7.10543e-15 0 -106.356 -16.2586 -93.7893 27.7188 7.10543e-15 0 8.96444 -28.6984 6.89959 2.2979 -0.4685 1.8313 37.1841 70.9488 -65.3921 5.2953 -1.06581e-14 7.10543e-15 -13.655 2.43914 4.23131 3.0181 7.10543e-15 0 40.575 -4.26209 10.4488 9.3793 0.2991 2.5924 -15.7189 8.26171 2.10858 4.3461 7.10543e-15 7.10543e-15 -27.9756 -1.11866 5.59656 2.1666 3.55271e-15 -3.55271e-15 -30.2284 -1.57777 5.42757 9.4769 0.8376 0.2947 -15.5574 6.19104 1.80127 4.772 7.10543e-15 -7.10543e-15 -44.2332 -4.15799 10.4286 2.8722 0 0 -38.4625 -3.11873 10.6456 8.6586 1.0176 -1.7016 -12.8096 4.05758 0.0154535 4.5461 0 0 -68.2419 -4.98725 7.35472 2.506 0 -3.55271e-15 -26.1841 0.226366 12.1003 7.6901 0.6618 -3.9096 -1.69592 -16.7036 -0.578566 3.2119 0 0 -48.2121 -6.75384 15.0249 1.924 -2.66454e-15 0 -25.7169 -1.92461 10.2066 -4.0677 26.6109 -1.1234 -9.13603 -10.822 -10.6985 -14.1772 0 3.55271e-15 42.8268 42.1091 31.694 -26.1234 7.10543e-15 -7.10543e-15 25.8488 -0.0598171 118.867 -27.7188 0 -1.42109e-14 -11.4705 -11.3123 11.9652 -2.2979 -0.4684 1.8313 -92.2024 72.3373 115.748 -5.2953 7.10543e-15 -7.10543e-15 20.806 -0.164366 -7.80925 -3.0181 1.42109e-14 0 7.44353 -1.87408 -23.1505 -9.3793 0.2991 2.5924 -0.483211 -1.4043 -4.46204 -4.3461 3.55271e-15 0 11.3885 0.0663402 -2.1081 -2.1666 3.55271e-15 1.42109e-14 35.2115 -1.89994 -5.61244 -9.4769 0.8376 0.2947 -5.74449 -0.492517 -10.345 -4.772 1.77636e-15 -1.42109e-14 99.6664 -15.9162 -13.533 -2.8722 0 0 64.9769 -7.76868 -13.6635 -8.6586 1.0176 -1.7016 4.03544 -11.2401 -9.54017 -4.5461 1.77636e-15 0 113.305 -9.33452 -6.15034 -2.506 0 -1.42109e-14 71.4335 -4.52062 -7.1353 -7.6901 0.6618 -3.9096 -3.28619 -26.781 -8.59919 -3.2119 7.10543e-15 0 88.1866 -18.3453 -18.9248 -1.924 -3.55271e-15 1.42109e-14 68.3114 -11.8989 -18.9734 8.7379 -0.0029 0.0005 73.6355 -48.4297 65.6541 0 -46.6676 0 173.43 53.6012 -157.08 1.77636e-15 -40.1476 0 -18.9612 -24.0596 -0.408543 0 -8.8846 14.2294 0.0001 -7.95139e-16 3.18055e-15 -8.7379 0.0029 -0.0005 -23.3432 -3.87028 25.1028 -3.55271e-15 -46.6676 -1.77636e-15 -165.843 53.4064 153.98 -3.55271e-15 -40.1476 3.55271e-15 -1.39333 -47.1601 -4.14624 0 -8.8846 14.2294 1.59028e-15 0 8.15017e-15 
-2.11138 40.0284 -1.53378 -7.11269 -16.4584 -45.4433 1.11022e-15 7.2397 1.77636e-15 -2.70426 14.5454 4.48885 0 16.546 0 -7.41061 30.9109 7.04113 0 34.2149 0 2.72619 29.6395 -1.73407 -8.88178e-16 6.2923 0 3.37469 -38.0779 2.2988 4.0639 26.6115 -1.1234 4.25337 -9.4459 -5.18354 14.1772 0 -7.10543e-15 -69.8038 6.77219 -56.9037 26.1234 0 0 -106.129 -17.9553 -94.0657 27.7188 7.10543e-15 -3.55271e-15 8.63843 -29.8586 8.00128 2.2979 -0.4685 1.8313 37.1841 70.9488 -65.3921 5.2953 3.55271e-15 0 -13.655 2.43914 4.23131 3.0181 1.42109e-14 0 40.575 -4.26209 10.4488 9.3793 0.2991 2.5924 -15.7189 8.26171 2.10858 4.3461 0 -7.10543e-15 -27.9756 -1.11866 5.59656 2.1666 -5.32907e-15 0 -30.2284 -1.57777 5.42757 9.4769 0.8376 0.2947 -15.5574 6.19104 1.80127 4.772 1.42109e-14 0 -44.2332 -4.15799 10.4286 2.8722 -3.55271e-15 -3.55271e-15 -38.4625 -3.11873 10.6456 8.6586 1.0176 -1.7016 -12.8096 4.05758 0.0154535 4.5461 1.42109e-14 7.10543e-15 -68.2419 -4.98725 7.35472 2.506 7.10543e-15 7.10543e-15 -26.1841 0.226366 12.1003 7.6901 0.6618 -3.9096 -1.69592 -16.7036 -0.578566 3.2119 0 -7.10543e-15 -48.2121 -6.75384 15.0249 1.924 -1.77636e-15 0 -25.7169 -1.92461 10.2066 -4.0677 26.6109 -1.1234 -9.13311 -10.8201 -10.6912 -14.1772 0 0 43.6516 42.709 30.6407 -26.1234 -1.42109e-14 0 24.9661 -0.39336 119.154 -27.7188 -7.10543e-15 0 -13.0658 -11.4611 11.4432 -2.2979 -0.4684 1.8313 -92.2024 72.3373 115.748 -5.2953 0 0 20.806 -0.164366 -7.80925 -3.0181 0 0 7.44353 -1.87408 -23.1505 -9.3793 0.2991 2.5924 -0.483211 -1.4043 -4.46204 -4.3461 1.77636e-15 -1.42109e-14 11.3885 0.0663402 -2.1081 -2.1666 7.10543e-15 1.42109e-14 35.2115 -1.89994 -5.61244 -9.4769 0.8376 0.2947 -5.74449 -0.492517 -10.345 -4.772 5.32907e-15 1.42109e-14 99.6664 -15.9162 -13.533 -2.8722 -1.77636e-15 1.42109e-14 64.9769 -7.76868 -13.6635 -8.6586 1.0176 -1.7016 4.03544 -11.2401 -9.54017 -4.5461 -1.77636e-15 1.42109e-14 113.305 -9.33452 -6.15034 -2.506 0 0 71.4335 -4.52062 -7.1353 -7.6901 0.6618 -3.9096 -3.28619 -26.781 -8.59919 -3.2119 3.55271e-15 -1.42109e-14 88.1866 -18.3453 -18.9248 -1.924 3.55271e-15 0 68.3114 -11.8989 -18.9734 8.7379 -0.0029 0.0005 73.0175 -46.9902 66.267 -8.88178e-16 -46.6676 0 169.707 54.0774 -153.986 3.55271e-15 -40.1476 3.55271e-15 -18.1186 -19.9215 0.814742 1.77636e-15 -8.8846 14.2294 0.0001 7.95139e-16 3.18055e-15 -8.7379 0.0029 -0.0005 -22.6426 -2.99615 24.688 -3.55271e-15 -46.6676 -1.77636e-15 -164.821 51.4926 151.126 -3.55271e-15 -40.1476 0 -0.415796 -47.5087 -3.05128 -3.55271e-15 -8.8846 14.2294 -7.95139e-16 1.59028e-15 1.98785e-16 
